<?xml version="1.0" standalone="no"?>
<!DOCTYPE svg PUBLIC "-//W3C//DTD SVG 20010904//EN"
 "http://www.w3.org/TR/2001/REC-SVG-20010904/DTD/svg10.dtd">
<svg version="1.0" xmlns="http://www.w3.org/2000/svg"
 width="1280.000000pt" height="809.000000pt" viewBox="0 0 1280.000000 809.000000"
 preserveAspectRatio="xMidYMid meet">
<g transform="translate(0.000000,809.000000) scale(0.100000,-0.100000)"
fill="#000000" stroke="none">
<path d="M1090 8050 c0 -20 5 -30 15 -30 18 0 19 -7 1 -57 -11 -32 -11 -49 0
-103 19 -93 19 -97 -34 -185 -35 -58 -54 -81 -71 -83 -22 -3 -23 -2 -16 40 4
24 14 55 21 70 15 28 18 77 8 116 -5 16 -14 22 -34 22 -15 0 -35 9 -45 20 -10
11 -28 20 -39 20 -12 0 -68 32 -126 70 -58 38 -108 70 -112 70 -17 0 -26 -73
-16 -124 8 -38 8 -68 1 -107 -9 -44 -8 -59 4 -79 13 -23 13 -30 0 -60 -14 -34
-13 -36 17 -62 29 -25 30 -27 9 -28 -12 0 -27 -10 -34 -22 -10 -18 -8 -24 11
-38 22 -17 22 -18 5 -53 -10 -22 -24 -37 -35 -37 -14 0 -19 -12 -24 -56 -11
-94 -231 -675 -294 -777 -13 -20 -32 -42 -42 -47 -10 -5 -21 -24 -25 -42 -4
-18 -21 -47 -37 -65 -30 -31 -30 -33 -19 -77 7 -31 8 -53 1 -71 -6 -14 -10
-91 -10 -171 l0 -145 -38 -65 c-20 -36 -58 -99 -84 -140 -59 -92 -60 -109 -12
-255 33 -103 34 -112 19 -129 -9 -10 -25 -41 -36 -69 -18 -48 -18 -53 -3 -77
16 -23 15 -26 -1 -44 -16 -18 -16 -21 6 -57 13 -21 38 -58 56 -82 30 -40 33
-50 33 -113 0 -64 3 -74 31 -110 l32 -40 23 29 c12 15 24 26 26 23 8 -9 35
-170 29 -170 -3 0 -15 7 -25 15 -11 8 -30 15 -43 15 -22 0 -23 -4 -23 -67 l0
-66 55 -58 c63 -66 71 -101 31 -138 -12 -12 -29 -40 -35 -63 -12 -40 -12 -41
22 -77 21 -21 40 -55 47 -81 19 -73 66 -167 89 -179 23 -13 29 -59 10 -78 -8
-8 -5 -20 14 -45 l25 -33 -24 -65 -24 -65 33 -27 c17 -15 50 -32 72 -38 22 -6
75 -27 119 -48 69 -32 81 -42 96 -77 22 -51 33 -60 97 -75 61 -14 75 -28 78
-78 2 -33 5 -37 30 -36 21 1 37 -11 74 -56 91 -109 108 -150 116 -278 5 -70
12 -115 19 -117 11 -4 551 -55 580 -55 11 0 16 -9 16 -27 0 -23 10 -34 58 -64
31 -19 230 -144 442 -276 l385 -241 355 -46 c195 -25 361 -46 367 -46 7 0 15
24 19 60 4 33 10 63 15 66 5 3 95 -4 201 -16 218 -23 278 -42 278 -88 0 -18
45 -72 180 -212 99 -103 180 -195 180 -205 0 -9 9 -30 21 -46 17 -24 19 -38
14 -70 -13 -76 8 -101 185 -226 88 -62 168 -113 178 -113 29 0 87 69 117 142
29 67 42 78 91 78 11 0 29 9 39 20 l18 20 24 -22 c20 -18 39 -24 106 -28 92
-6 147 -30 147 -65 0 -21 60 -85 116 -123 22 -15 34 -33 39 -59 14 -77 83
-223 135 -284 27 -34 50 -68 50 -76 0 -27 40 -73 65 -73 27 0 45 -40 45 -100
0 -48 13 -87 63 -189 l41 -84 106 -49 c58 -27 141 -58 186 -67 46 -11 98 -30
121 -45 35 -24 44 -26 61 -15 17 10 23 10 36 0 27 -23 20 29 -8 58 -15 17 -36
65 -55 131 -29 100 -29 108 -16 148 12 32 12 47 4 61 -10 14 -7 24 12 50 19
25 24 45 24 89 0 55 1 57 27 60 31 4 58 35 58 69 0 24 27 37 54 27 12 -5 18 1
22 24 5 24 13 31 38 36 53 11 63 21 42 45 -18 20 -18 21 18 37 30 15 39 16 60
4 22 -11 33 -9 108 30 136 69 168 90 174 116 3 13 22 38 42 55 30 27 34 34 24
50 -20 32 -14 57 18 74 34 18 50 13 50 -14 0 -10 8 -21 18 -23 10 -3 97 14
193 38 96 24 185 44 199 43 14 0 81 -13 150 -29 69 -15 128 -26 132 -24 5 3 8
18 8 33 0 37 33 53 70 35 14 -7 33 -15 43 -18 10 -3 25 -19 35 -35 12 -22 27
-32 52 -36 25 -4 42 -16 58 -39 14 -21 40 -40 68 -51 44 -17 44 -17 75 9 36
30 85 34 105 9 13 -17 15 -17 29 1 8 11 15 32 15 47 0 35 44 47 64 17 8 -11
38 -31 66 -44 31 -14 54 -32 57 -44 7 -24 3 -25 57 2 l45 22 -82 49 c-45 27
-86 52 -90 57 -18 17 71 130 102 130 11 0 2 38 -10 46 -4 2 -34 -12 -65 -33
-54 -36 -57 -37 -70 -18 -8 10 -14 22 -14 27 0 11 -68 10 -108 -1 -29 -9 -33
-7 -47 18 -12 25 -12 31 1 50 19 26 55 27 146 4 l66 -17 96 45 c92 43 99 45
153 38 44 -6 61 -5 73 6 9 8 25 12 35 9 16 -4 24 4 38 41 20 48 37 59 37 24 0
-38 30 -87 57 -94 20 -5 32 0 52 19 15 15 39 26 52 26 14 0 34 9 43 19 17 19
33 20 91 7 19 -4 47 -1 74 9 54 19 51 19 51 -5 0 -13 7 -20 19 -20 11 0 45
-10 76 -22 46 -17 61 -19 76 -10 15 10 25 9 49 -3 31 -16 37 -29 20 -40 -18
-11 -11 -22 25 -44 26 -15 35 -27 35 -47 0 -20 3 -24 13 -16 6 6 45 27 86 47
41 21 92 54 115 75 88 82 175 55 326 -102 72 -74 90 -88 117 -88 28 0 35 -6
68 -66 45 -81 52 -124 31 -197 -20 -67 -20 -116 -1 -141 17 -23 45 -14 45 14
0 26 31 27 47 0 16 -24 7 -74 -18 -96 -17 -15 -17 -19 -3 -45 8 -16 19 -29 24
-29 5 0 25 -24 44 -54 30 -46 39 -54 75 -60 36 -5 41 -9 41 -34 0 -18 17 -46
50 -85 28 -32 53 -71 56 -85 3 -15 7 -32 9 -39 2 -6 21 -14 42 -18 42 -7 85
-40 127 -97 15 -21 38 -41 51 -44 18 -4 25 -13 25 -30 0 -13 4 -24 8 -24 26 0
103 35 130 58 29 26 30 29 23 77 -8 45 -6 53 17 83 24 32 25 36 13 83 -10 39
-10 59 0 98 15 60 8 81 -72 201 -31 47 -66 114 -78 150 -16 49 -28 70 -50 83
-23 13 -30 26 -35 66 -4 28 -4 61 0 75 8 35 -65 141 -110 160 -22 9 -36 23
-40 41 -4 14 -31 55 -61 91 -51 60 -55 68 -55 115 0 40 -5 58 -25 81 -14 16
-25 42 -25 57 0 14 -7 37 -16 49 -8 12 -22 72 -30 136 -14 105 -13 120 2 173
17 60 53 139 84 183 9 14 20 39 24 55 13 51 82 131 175 201 56 41 93 77 100
94 5 15 23 46 40 70 16 23 35 58 42 78 18 56 74 145 108 170 17 12 54 27 83
33 68 14 82 28 102 97 12 42 33 77 81 134 55 65 73 80 122 98 32 12 68 31 81
42 27 26 30 54 5 43 -94 -40 -123 -43 -141 -15 -11 18 -10 20 11 20 50 0 103
74 71 101 -8 6 -14 22 -14 35 0 29 39 44 52 20 14 -25 56 -19 89 13 25 26 29
37 29 85 0 60 -10 69 -34 34 l-16 -22 -24 23 c-23 22 -25 22 -71 7 -25 -9 -51
-14 -56 -11 -23 15 -3 37 71 81 69 40 80 51 80 74 0 15 -7 33 -15 40 -8 7 -18
30 -21 51 -10 59 -20 63 -133 56 -30 -2 -35 2 -42 26 -6 23 -4 27 12 27 20 0
26 15 9 25 -16 10 -11 43 7 54 17 9 17 11 1 39 -10 17 -18 43 -18 59 0 64 -34
103 -88 103 -11 0 -30 9 -43 20 -24 20 -24 20 -5 35 11 8 32 15 48 15 15 0 28
2 28 5 0 2 -11 34 -25 71 -20 53 -25 85 -25 158 0 87 1 93 31 129 17 20 39 37
51 37 17 0 19 -5 13 -32 -3 -18 -13 -50 -22 -70 -14 -33 -14 -41 -1 -75 9 -21
21 -71 28 -110 l13 -73 49 -6 c47 -6 48 -7 48 -41 0 -33 1 -34 33 -31 32 3 32
3 28 -37 -1 -21 -7 -50 -12 -63 -5 -13 -9 -44 -9 -70 l1 -47 25 49 c14 26 32
80 40 119 8 38 21 79 29 91 11 14 15 48 15 109 l0 89 -36 33 c-20 18 -43 39
-51 47 -8 7 -35 44 -59 81 -33 51 -42 75 -38 93 3 13 9 24 12 24 3 0 21 -18
40 -40 19 -23 52 -50 73 -60 21 -11 43 -29 50 -41 l11 -21 25 24 c14 12 45 65
69 116 43 92 44 95 44 201 0 116 -9 139 -50 128 -12 -3 -20 0 -20 6 0 24 18
38 56 44 21 3 67 23 102 44 34 21 89 50 122 65 42 19 66 37 85 65 l25 39 -31
0 c-18 0 -56 -15 -88 -34 -97 -58 -192 -99 -203 -88 -24 24 93 139 177 176 28
12 75 28 105 34 30 7 82 27 115 46 57 31 60 35 63 74 2 26 9 42 20 47 9 3 18
2 20 -3 1 -5 9 -18 17 -28 14 -18 16 -17 46 19 18 21 44 44 60 52 25 14 29 13
38 -2 9 -16 11 -16 28 -1 10 9 30 21 46 27 22 9 27 17 27 44 0 35 -25 97 -40
97 -19 0 -31 -29 -21 -49 19 -34 13 -58 -14 -65 -33 -8 -56 5 -95 54 -24 30
-39 40 -61 40 -40 0 -45 20 -22 84 17 46 18 57 7 77 -20 37 -17 77 16 187 22
73 27 107 21 124 -12 32 27 83 58 75 14 -3 25 2 35 18 9 13 30 25 50 29 32 6
36 12 61 77 22 57 33 73 55 81 15 5 42 27 60 49 26 33 37 39 57 35 19 -5 36 4
87 49 35 31 69 67 76 80 7 13 24 28 38 33 l26 8 -23 23 c-12 12 -26 32 -30 44
-6 15 -23 26 -54 34 -37 10 -47 18 -59 48 -9 24 -28 44 -53 58 -43 24 -55 54
-117 274 l-31 113 -64 41 -63 41 -65 -41 c-35 -23 -71 -41 -79 -41 -20 0 -42
30 -38 52 3 14 -1 19 -14 16 -27 -5 -106 -267 -98 -325 3 -23 1 -51 -5 -61 -7
-13 -7 -40 0 -81 10 -67 -1 -132 -28 -163 -10 -11 -14 -28 -10 -46 9 -43 -16
-73 -53 -66 -44 9 -90 -40 -90 -95 0 -29 -5 -41 -17 -45 -10 -2 -164 -37 -343
-77 -243 -54 -331 -78 -349 -93 -56 -50 -162 -179 -167 -205 -4 -16 -26 -48
-50 -72 -24 -24 -44 -49 -44 -57 0 -8 11 -27 25 -44 17 -20 25 -42 25 -66 0
-55 -91 -138 -198 -181 -79 -32 -81 -32 -108 -14 -31 20 -45 19 -166 -8 l-88
-21 -10 -39 c-10 -36 -8 -42 15 -73 44 -58 31 -89 -87 -201 -55 -52 -108 -95
-119 -95 -10 0 -29 -14 -41 -31 -25 -34 -172 -129 -199 -129 -9 0 -40 -27 -69
-60 -46 -54 -53 -58 -75 -48 -19 9 -30 5 -70 -22 -42 -29 -50 -31 -98 -25 -29
4 -77 18 -107 32 -32 14 -64 22 -77 18 -21 -5 -23 -2 -23 30 0 21 11 52 25 75
14 22 25 49 25 61 0 11 9 32 19 46 11 13 23 44 27 69 5 38 10 44 30 44 13 0
24 3 24 8 0 4 5 34 10 67 9 57 8 67 -31 183 -39 116 -43 125 -75 138 -18 8
-40 14 -47 14 -12 0 -58 -53 -122 -138 -19 -25 -63 4 -70 47 -6 34 -2 41 39
83 l46 45 0 84 c-1 54 -6 93 -15 109 -17 29 -20 86 -5 95 5 3 10 10 10 14 0
18 -83 62 -126 68 -28 4 -54 15 -67 28 -12 13 -46 30 -75 38 l-52 15 -36 -44
c-27 -33 -35 -50 -30 -67 4 -17 -1 -30 -19 -47 -18 -17 -25 -34 -25 -60 0 -37
-8 -51 -47 -84 -22 -18 -24 -18 -42 -2 -40 36 -81 -19 -92 -124 -4 -36 -11
-94 -14 -130 -8 -72 15 -172 61 -262 27 -54 31 -119 13 -245 -15 -108 -70
-200 -142 -242 l-52 -30 -39 22 c-31 18 -43 32 -56 71 -9 27 -27 57 -40 68
-19 15 -24 30 -27 76 -1 31 -12 108 -24 170 -19 100 -20 118 -8 155 7 23 12
71 10 109 -3 58 0 71 23 104 19 28 26 52 26 85 0 31 11 70 34 120 33 72 53
139 42 139 -3 0 -20 -21 -37 -47 -18 -27 -51 -66 -74 -88 -22 -22 -47 -50 -55
-62 -10 -16 -19 -20 -29 -14 -22 14 -5 61 48 134 27 37 52 79 55 94 4 15 18
48 30 73 13 25 27 64 31 88 5 32 11 42 26 42 13 0 19 -7 19 -22 l1 -23 18 23
c24 28 51 29 51 2 0 -30 30 -24 43 9 9 24 17 30 52 33 25 3 59 18 85 37 37 27
51 31 105 31 49 0 66 -4 80 -20 17 -19 18 -19 38 6 18 24 24 25 76 19 44 -5
66 -2 101 13 39 17 42 21 25 27 -11 4 -55 21 -98 37 -65 25 -86 29 -127 23
-47 -7 -50 -6 -60 20 -5 14 -10 37 -10 51 0 28 -6 29 -57 10 -21 -8 -69 -20
-108 -26 -53 -9 -84 -21 -127 -51 -56 -38 -57 -39 -133 -34 -68 4 -80 8 -118
38 -53 43 -107 61 -163 53 -32 -4 -42 -2 -40 7 2 6 10 34 16 60 10 35 23 56
53 81 l40 33 -44 7 c-39 6 -46 4 -59 -16 -32 -50 -145 -142 -216 -175 -32 -16
-82 -47 -111 -70 -50 -39 -54 -41 -92 -31 -28 7 -50 7 -72 -1 -18 -6 -36 -11
-40 -11 -13 0 -11 68 2 76 8 5 7 10 -4 16 -12 6 -40 -3 -97 -32 -76 -38 -83
-40 -120 -29 -22 7 -40 16 -40 20 0 4 47 52 104 106 70 66 152 130 250 193 80
52 145 98 145 102 2 13 -62 20 -130 13 -57 -6 -74 -4 -95 10 -25 16 -29 16
-101 -10 -66 -23 -79 -25 -111 -14 -20 6 -49 22 -64 35 -15 12 -36 20 -46 18
-12 -4 -28 7 -49 33 -28 36 -36 40 -107 51 -58 9 -87 9 -120 0 -40 -10 -49 -9
-100 15 -43 21 -61 25 -80 17 -35 -13 -54 13 -55 75 -1 82 -13 110 -47 113
-28 3 -31 0 -39 -40 l-10 -43 -200 -10 c-263 -14 -1209 14 -1520 44 -463 45
-942 104 -1385 171 -256 39 -553 84 -661 101 -224 34 -1300 271 -1605 354
-110 30 -206 55 -212 55 -7 0 -12 -13 -12 -30z"/>
<path d="M1093 2055 c-74 -35 -91 -47 -105 -78 -23 -48 -64 -70 -109 -57 -51
15 -65 12 -82 -14 -15 -22 -14 -25 12 -57 20 -24 30 -50 35 -92 7 -54 10 -58
47 -77 44 -23 43 -18 28 -93 -13 -62 -18 -65 -89 -51 -32 7 -32 7 -27 55 4 29
2 49 -4 49 -20 0 -204 -32 -208 -36 -3 -2 5 -24 17 -49 18 -37 20 -49 10 -76
-11 -31 -9 -34 27 -65 23 -19 64 -39 101 -49 62 -17 64 -17 97 4 53 33 52 36
30 -96 -5 -30 -8 -33 -41 -33 -27 0 -44 -8 -69 -32 l-33 -32 -28 27 c-33 32
-48 34 -62 7 -6 -10 -42 -38 -80 -61 -39 -23 -70 -42 -70 -43 0 -1 7 -27 16
-56 13 -45 14 -60 4 -91 -11 -33 -10 -41 8 -71 18 -29 30 -36 81 -46 59 -12
61 -14 71 -53 10 -34 9 -44 -5 -59 -9 -10 -15 -27 -13 -36 3 -15 12 -18 50
-15 45 2 47 1 78 -43 34 -51 39 -52 100 -31 23 8 46 15 51 15 5 0 -6 -24 -25
-52 -19 -29 -40 -69 -46 -89 -12 -32 -24 -41 -109 -83 -53 -26 -117 -61 -142
-77 -32 -20 -59 -29 -88 -29 -23 0 -58 -7 -78 -15 -19 -8 -54 -15 -77 -15 -29
-1 -50 -8 -71 -26 l-30 -26 95 6 c76 4 131 16 275 60 262 79 263 80 395 190
105 88 117 101 102 112 -11 8 -13 16 -7 21 128 113 170 146 220 174 l60 34
-19 -30 c-10 -17 -32 -46 -48 -66 -19 -25 -28 -49 -28 -73 0 -20 3 -36 6 -36
4 0 42 10 86 22 86 23 113 47 120 103 l3 30 75 -3 75 -4 55 -53 c51 -50 60
-55 115 -61 71 -8 182 -47 294 -104 l82 -41 49 -102 c41 -85 62 -116 132 -187
46 -47 113 -111 149 -143 l66 -57 72 31 71 32 0 73 0 74 -93 43 -93 44 -114
156 c-63 87 -118 157 -122 157 -5 0 -25 -11 -46 -23 -81 -52 -73 -53 -137 23
l-58 70 -68 0 -69 0 0 563 -1 562 -58 64 -58 65 -33 -21 -34 -21 -88 44 c-83
42 -90 44 -132 34 -62 -14 -98 0 -94 37 3 25 -2 29 -77 59 -68 27 -82 29 -96
18 -13 -12 -23 -12 -61 0 -46 13 -47 13 -135 -29z"/>
<path d="M3238 1033 c-33 -14 -38 -20 -38 -49 l0 -34 59 0 c56 0 60 1 69 29 9
25 7 32 -12 50 -26 24 -28 24 -78 4z"/>
<path d="M3682 873 c-19 -17 -20 -22 -10 -70 l11 -53 58 0 59 0 0 34 c0 28 -8
40 -44 70 -24 20 -46 36 -49 36 -3 0 -14 -8 -25 -17z"/>
<path d="M3930 695 c0 -24 3 -25 55 -25 41 0 56 -4 64 -17 11 -20 25 -11 35
23 6 20 1 23 -57 33 -91 16 -97 15 -97 -14z"/>
<path d="M4110 640 c0 -25 4 -30 24 -30 18 0 27 -8 35 -30 5 -16 13 -30 16
-30 16 0 72 29 85 44 12 16 11 20 -10 36 -18 14 -30 16 -54 9 -25 -7 -37 -5
-58 11 -36 26 -38 25 -38 -10z"/>
<path d="M3995 616 c-16 -11 -17 -16 -6 -29 7 -9 16 -28 20 -43 l7 -27 27 24
26 24 -28 32 c-25 30 -29 31 -46 19z"/>
<path d="M4340 406 c0 -15 -12 -44 -26 -66 -26 -39 -26 -42 -15 -102 7 -35 19
-86 27 -115 13 -44 19 -53 45 -58 23 -5 33 -2 49 17 11 12 19 26 20 30 0 8
123 54 168 63 25 5 32 12 32 31 0 17 -7 25 -26 30 -17 4 -31 18 -40 39 -19 46
-98 112 -153 129 -25 8 -54 17 -63 21 -15 6 -18 2 -18 -19z"/>
</g>
</svg>
